<svg width="800" height="400" viewBox="0 0 800 400" xmlns="http://www.w3.org/2000/svg">
  <!-- Background gradient -->
  <defs>
    <linearGradient id="bgGradient" x1="0%" y1="0%" x2="100%" y2="100%">
      <stop offset="0%" stop-color="#333333" />
      <stop offset="100%" stop-color="#4d4d4d" />
    </linearGradient>
    
    <!-- Wave patterns -->
    <path id="wave1" d="M0,160 C100,100 200,240 300,160 C400,80 500,240 600,160 C700,80 800,240 900,160 L900,400 L0,400 Z" />
    <path id="wave2" d="M0,220 C100,160 200,300 300,220 C400,140 500,300 600,220 C700,140 800,300 900,220 L900,400 L0,400 Z" />
    <path id="wave3" d="M0,280 C100,220 200,360 300,280 C400,200 500,360 600,280 C700,200 800,360 900,280 L900,400 L0,400 Z" />
  </defs>
  
  <!-- Background -->
  <rect width="800" height="400" fill="url(#bgGradient)" />
  
  <!-- Decorative circles -->
  <circle cx="650" cy="100" r="40" fill="#cc903c" opacity="0.3" />
  <circle cx="720" cy="150" r="25" fill="#dda654" opacity="0.4" />
  <circle cx="600" cy="50" r="15" fill="#ebc183" opacity="0.3" />
  
  <!-- Waves -->
  <use href="#wave1" fill="#444444" opacity="0.5" />
  <use href="#wave2" fill="#555555" opacity="0.4" />
  <use href="#wave3" fill="#666666" opacity="0.3" />
  
  <!-- Small floating elements -->
  <circle cx="200" cy="100" r="8" fill="#cc903c" opacity="0.4" />
  <circle cx="300" cy="180" r="5" fill="#cc903c" opacity="0.3" />
  <circle cx="150" cy="150" r="6" fill="#cc903c" opacity="0.4" />
  <circle cx="400" cy="120" r="7" fill="#cc903c" opacity="0.3" />
</svg>