<svg xmlns="http://www.w3.org/2000/svg" xmlns:xlink="http://www.w3.org/1999/xlink" version="1.1" width="256" height="256" viewBox="0 0 256 256" xml:space="preserve">
<g style="stroke: none; stroke-width: 0; stroke-dasharray: none; stroke-linecap: butt; stroke-linejoin: miter; stroke-miterlimit: 10; fill: none; fill-rule: nonzero; opacity: 1;" transform="translate(1.4065934065934016 1.4065934065934016) scale(2.81 2.81)">
	<circle cx="38.859" cy="33.749" r="10.739" style="stroke: none; stroke-width: 1; stroke-dasharray: none; stroke-linecap: butt; stroke-linejoin: miter; stroke-miterlimit: 10; fill: rgb(0,0,0); fill-rule: nonzero; opacity: 1;" transform="  matrix(1 0 0 1 0 0) "/>
	<path d="M 85.632 53.562 c -4.843 -11.952 -7.671 -21.152 -8.897 -28.954 c -0.008 -0.047 -0.019 -0.093 -0.032 -0.139 c -0.546 -1.774 -1.542 -3.393 -2.882 -4.681 l -10.241 -9.84 C 56.744 3.274 47.721 -0.254 38.146 0.014 C 19.934 0.527 5.037 15.178 4.232 33.37 C 3.868 41.57 6.396 49.66 11.35 56.148 c 1.084 1.421 1.657 3.051 1.657 4.715 v 23.585 c 0 3.062 2.491 5.552 5.552 5.552 h 33.099 c 3.062 0 5.552 -2.49 5.552 -5.552 V 81.54 h 11.867 c 4.341 0 7.873 -3.532 7.873 -7.873 V 57.806 h 5.637 c 1.03 0 1.974 -0.476 2.586 -1.305 C 85.786 55.672 85.964 54.631 85.632 53.562 z M 61.875 36.511 c 0 1.994 -1.616 3.611 -3.611 3.611 h -0.002 c -1.353 0 -2.588 0.758 -3.206 1.961 c -0.269 0.523 -0.563 1.033 -0.883 1.53 c -0.731 1.135 -0.767 2.582 -0.092 3.752 l 0.001 0.001 c 0.997 1.727 0.405 3.935 -1.322 4.932 l -4.783 2.761 c -1.727 0.997 -3.935 0.405 -4.932 -1.322 l -0.001 -0.001 c -0.675 -1.169 -1.946 -1.862 -3.295 -1.796 c -0.59 0.029 -1.18 0.028 -1.767 0 c -1.351 -0.066 -2.625 0.625 -3.301 1.796 l -0.001 0.002 c -0.997 1.727 -3.205 2.319 -4.932 1.322 l -4.783 -2.761 c -1.727 -0.997 -2.319 -3.205 -1.322 -4.932 c 0.686 -1.189 0.618 -2.65 -0.123 -3.806 c -0.148 -0.23 -0.291 -0.465 -0.429 -0.705 c -0.138 -0.24 -0.27 -0.481 -0.396 -0.724 c -0.631 -1.219 -1.862 -2.009 -3.235 -2.009 v 0 c -1.994 0 -3.611 -1.616 -3.611 -3.611 v -5.522 c 0 -1.994 1.616 -3.611 3.611 -3.611 h 0.002 c 1.353 0 2.588 -0.758 3.206 -1.961 c 0.269 -0.523 0.563 -1.033 0.883 -1.53 c 0.731 -1.135 0.767 -2.582 0.092 -3.752 l -0.001 -0.001 c -0.997 -1.727 -0.405 -3.935 1.322 -4.932 l 4.783 -2.761 c 1.727 -0.997 3.935 -0.405 4.932 1.322 l 0.001 0.001 c 0.675 1.169 1.946 1.862 3.295 1.796 c 0.59 -0.029 1.18 -0.028 1.767 0 c 1.351 0.066 2.625 -0.625 3.301 -1.796 l 0.001 -0.002 c 0.997 -1.727 3.205 -2.319 4.932 -1.322 l 4.783 2.761 c 1.727 0.997 2.319 3.205 1.322 4.932 v 0 c -0.686 1.189 -0.618 2.65 0.123 3.806 c 0.148 0.23 0.291 0.465 0.429 0.705 c 0.138 0.24 0.27 0.481 0.396 0.724 c 0.631 1.219 1.862 2.009 3.235 2.009 c 1.994 0 3.611 1.617 3.611 3.611 L 61.875 36.511 z" style="stroke: none; stroke-width: 1; stroke-dasharray: none; stroke-linecap: butt; stroke-linejoin: miter; stroke-miterlimit: 10; fill: rgb(0,0,0); fill-rule: nonzero; opacity: 1;" transform=" matrix(1 0 0 1 0 0) " stroke-linecap="round"/>
</g>
</svg>